<svg xmlns="http://www.w3.org/2000/svg" height="512pt" viewBox="0 0 512 512" width="512pt">
  <path fill="#888888" d="M255.754 386.078c-34.727 0-67.371-13.523-91.926-38.078-50.687-50.688-50.687-133.16 0-183.848 17.469-17.468 39.39-29.543 63.39-34.922a130.388 130.388 0 0 1 70.274 3.704c5.23 1.77 8.04 7.445 6.27 12.675-1.77 5.23-7.446 8.04-12.676 6.27-39.965-13.516-83.309-3.39-113.117 26.418-42.887 42.89-42.887 112.676 0 155.562 20.777 20.778 48.402 32.22 77.785 32.22 29.379 0 57.004-11.442 77.781-32.22 30.125-30.125 40.164-75.464 25.574-115.515-1.89-5.188.786-10.93 5.973-12.817 5.191-1.89 10.93.782 12.82 5.973 17.239 47.32 5.375 100.902-30.226 136.5-24.555 24.555-57.2 38.078-91.922 38.078zm0 0"/>
  <path fill="#888888" d="M300 512h-88c-5.523 0-10-4.477-10-10v-42.73a208.334 208.334 0 0 1-51.555-21.348l-30.21 30.21a10 10 0 0 1-14.141 0l-62.227-62.226a10 10 0 0 1 0-14.14l30.211-30.211A208.334 208.334 0 0 1 52.73 310H10c-5.523 0-10-4.477-10-10v-88c0-5.523 4.477-10 10-10h42.797a208.366 208.366 0 0 1 21.375-51.46l-30.305-30.306a10 10 0 0 1 0-14.14l62.227-62.227a10 10 0 0 1 14.14 0l30.375 30.375A208.242 208.242 0 0 1 202 52.984V10c0-5.523 4.477-10 10-10h88c5.523 0 10 4.477 10 10v43.05a208.338 208.338 0 0 1 51.297 21.286l30.465-30.469a10.009 10.009 0 0 1 7.074-2.93c2.648 0 5.195 1.055 7.07 2.93l62.227 62.227a9.996 9.996 0 0 1 2.926 7.07 9.996 9.996 0 0 1-2.926 7.07L437.664 150.7A208.365 208.365 0 0 1 458.95 202H502c5.523 0 10 4.477 10 10v88c0 5.523-4.477 10-10 10h-42.984a208.242 208.242 0 0 1-21.258 51.39l30.375 30.376a10 10 0 0 1 0 14.14l-62.227 62.227c-3.902 3.902-10.234 3.902-14.14 0l-30.305-30.305A208.428 208.428 0 0 1 310 459.203V502c0 5.523-4.477 10-10 10zm-78-20h68v-40.637a10 10 0 0 1 7.805-9.758c21.25-4.78 41.375-13.14 59.812-24.843a10 10 0 0 1 12.434 1.37l28.785 28.786 48.086-48.082-28.848-28.848a9.994 9.994 0 0 1-1.383-12.414 188.608 188.608 0 0 0 24.715-59.758 9.997 9.997 0 0 1 9.758-7.816H492v-68h-40.89a10 10 0 0 1-9.758-7.805c-4.77-21.187-13.098-41.261-24.754-59.664a10 10 0 0 1 1.375-12.422l28.945-28.945-48.082-48.082-28.945 28.945a10 10 0 0 1-12.422 1.375c-18.399-11.656-38.473-19.984-59.664-24.754A10 10 0 0 1 290 60.895V20h-68v40.836a9.993 9.993 0 0 1-7.816 9.758 188.608 188.608 0 0 0-59.758 24.715 9.994 9.994 0 0 1-12.414-1.383l-28.848-28.848-48.082 48.086 28.79 28.785a10.005 10.005 0 0 1 1.37 12.434 188.56 188.56 0 0 0-24.847 59.812A10 10 0 0 1 60.64 222H20v68h40.582a10 10 0 0 1 9.762 7.816c4.758 21.286 13.105 41.438 24.804 59.907a10 10 0 0 1-1.375 12.422l-28.691 28.69 48.082 48.083 28.691-28.688a9.995 9.995 0 0 1 12.422-1.378c18.47 11.699 38.625 20.046 59.907 24.808a9.997 9.997 0 0 1 7.82 9.758V492zm0 0"/>
  <path fill="#888888" d="M255.871 326.129c-38.598 0-70-31.402-70-70 0-38.602 31.402-70 70-70 38.602 0 70 31.398 70 70 0 38.598-31.398 70-70 70zm0-120c-27.566 0-50 22.43-50 50 0 27.566 22.434 50 50 50 27.57 0 50-22.434 50-50 0-27.57-22.43-50-50-50zm0 0M340.363 181.465a9.978 9.978 0 0 1-7.066-2.926c-3.906-3.902-3.91-10.234-.008-14.14l.484-.485c3.903-3.906 10.235-3.91 14.141-.004 3.906 3.903 3.91 10.235.008 14.14l-.48.481a9.967 9.967 0 0 1-7.079 2.934zm0 0"/>
</svg>
