<svg id="Ebene_1" xmlns="http://www.w3.org/2000/svg" viewBox="0 0 708.7 80.8">
  <style>
    .st1,.st3{fill:#2f3f92}.st3{fill-rule:evenodd;clip-rule:evenodd}
  </style>
  <path fill="#fff" d="M0 0h708.7v80.8H0z"/>
  <path class="st1" d="M52.4 66.1h-39v-8.9h39c2.9 0 5.3-.7 7.1-2.2 1.6-1.4 2.4-3 2.4-4.9 0-1.9-.8-3.5-2.4-4.8-1.8-1.4-4.1-2.1-7.1-2.1H28.1c-5 0-9-1.5-12-4.4-2.7-2.7-4-5.9-4-9.8 0-3.8 1.3-7 4-9.7 2.9-2.9 6.9-4.4 12-4.4h38.7v8.9H28.1c-1.9 0-3.4.5-4.5 1.6-1.1 1-1.6 2.3-1.6 3.7 0 1.4.5 2.6 1.5 3.6 1.1 1.1 2.7 1.6 4.6 1.6h24.2c5.5 0 9.8 1.7 13.1 5 2.9 3 4.4 6.7 4.4 11s-1.4 8-4.3 10.9c-3.2 3.3-7.6 4.9-13.1 4.9zM147.4 66.1V14.9h8.9v42.3h35.3v8.9zM243.9 51.7h-24.3l5.4-8.9h13.5l-8.9-14.7-23 37.9h-11.5l27.8-46.3c.9-1.5 2.1-2.7 3.5-3.6 1.2-.9 2.3-1.3 3.3-1.4 1-.1 2.2.3 3.5 1.1 1.5.9 2.7 2.3 3.7 3.9L264.1 66h-11.5l-8.7-14.3zM328.3 66.1h-13.2l-14.3-14.4h-19.2v-8.9h23.9c4.2 0 7.4-1 9.5-3.1 1.9-1.9 2.8-4.1 2.6-6.8-.3-6.1-4.4-9.1-12.2-9.1h-29.2v42.3h-8.9V14.9h36.8c7.7 0 13.6 1.9 17.6 5.6 3.4 3.1 5.1 7.3 5.3 12.4.1 4-.9 7.6-3.2 10.7-2.5 3.4-6.2 5.8-11 7.1l15.5 15.4z"/>
  <path d="M119.7 53.2L104.5 38l-3.6-6.5 6.5 3.6 15.2 15.2-2.9 2.9zM121.1 51.7" fill="#f49922"/>
  <path class="st1" d="M129 14h-17.3v8.1h15.2v35.3H91.6V42.1h-8.1v17.4c0 3.3 2.7 6 6 6H129c3.3 0 6-2.7 6-6V20c-.1-3.3-2.7-6-6-6zm1.2 48.3c-1 0-1.9-.8-1.9-1.9 0-1 .9-1.9 1.9-1.9 1 0 1.9.8 1.9 1.9 0 1-.8 1.9-1.9 1.9z"/>
  <path class="st1" d="M91.6 33l-1.9-.8.4-1.1 1.5.6v-9.6h9.7l-.6-1.5 1.1-.4.8 1.9h6.5V14H89.5c-3.3 0-6 2.7-6 6v19.5h8.1V33z"/>
  <path class="st3" d="M91.6 39.7h7.7v2.2h-7.7zM109.2 22.1h2.2V29h-2.2z"/>
  <path transform="rotate(-67.492 93.54 33.165)" class="st3" d="M93.1 31.6h.8v3.2h-.8z"/>
  <path transform="rotate(-45.001 96.096 26.638)" class="st3" d="M95.7 25h.8v3.2h-.8z"/>
  <path transform="rotate(-22.497 102.723 24.08)" class="st3" d="M102.3 22.5h.8v3.2h-.8z"/>
  <path class="st1" d="M0 0v80.8h708.7V0H0zm335.8 76.3H4.5V4.5h331.3v71.8zm70.8-52.5h-20.2v42.3h-8.9V23.8h-20.2v-8.9h49.3v8.9zm50.2 0h-35.3v33.4h35.3v8.9h-44.2V14.9h44.2v8.9zm-2.3 11.9v8.9h-29.3v-8.9h29.3zm62.7 25.5c-3.2 3.3-7.6 4.9-13.2 4.9h-39v-8.9h39c2.9 0 5.3-.7 7.1-2.2 1.6-1.4 2.4-3 2.4-4.9 0-1.9-.8-3.5-2.4-4.8-1.8-1.4-4.1-2.1-7.1-2.1h-24.2c-5 0-9-1.5-12-4.4-2.7-2.7-4-5.9-4-9.8 0-3.8 1.3-7 4-9.7 2.9-2.9 6.9-4.4 12-4.4h38.7v8.9h-38.7c-1.9 0-3.4.5-4.5 1.6-1.1 1-1.6 2.3-1.6 3.7 0 1.4.5 2.6 1.5 3.6 1.1 1.1 2.7 1.6 4.6 1.6H504c5.5 0 9.8 1.7 13.1 5 2.9 3 4.4 6.7 4.4 11 .1 4.3-1.4 7.9-4.3 10.9zm58.3-37.4h-20.2v42.3h-8.9V23.8h-20.2v-8.9h49.3v8.9zm50.3 0h-35.3v33.4h35.3v8.9h-44.2V14.9h44.2v8.9zm-2.3 11.9v8.9h-29.3v-8.9h29.3zm59 30.4l-14.3-14.4H649v-8.9h23.9c4.2 0 7.4-1 9.5-3.1 1.9-1.9 2.8-4.1 2.6-6.8-.3-6.1-4.4-9.1-12.2-9.1h-29.2v42.3h-8.9V14.9h36.8c7.7 0 13.6 1.9 17.6 5.6 3.4 3.1 5.1 7.3 5.3 12.4.1 4-.9 7.6-3.2 10.7-2.5 3.4-6.2 5.8-11 7.1l15.5 15.4h-13.2z"/>
</svg>
