<svg xmlns="http://www.w3.org/2000/svg" viewBox="0 0 511.999 511.999">
  <path fill="#F49921" d="M456.951 269.361a8.017 8.017 0 0 0-8.017 8.017v218.588H63.064v-64.668a8.017 8.017 0 0 0-16.034 0v72.685A8.017 8.017 0 0 0 55.047 512H456.95a8.017 8.017 0 0 0 8.017-8.017V277.378a8.016 8.016 0 0 0-8.016-8.017zM508.827 189.755L260.845 1.63a8.015 8.015 0 0 0-9.689 0l-98.304 74.575V50.238h9.086a8.017 8.017 0 0 0 8.017-8.017V8.017A8.017 8.017 0 0 0 161.938 0H42.221a8.017 8.017 0 0 0-8.017 8.017v34.205a8.017 8.017 0 0 0 8.017 8.017h9.086v103L3.172 189.755a8.017 8.017 0 0 0 4.845 14.403h39.015v184.384a8.017 8.017 0 0 0 16.034 0v-192.4a8.017 8.017 0 0 0-8.017-8.017h-23.2l224.15-170.046 224.152 170.046h-23.2a8.017 8.017 0 0 0-8.017 8.017v38.48a8.017 8.017 0 0 0 16.034 0v-30.463h39.015a8.015 8.015 0 0 0 4.844-14.404zM50.238 34.205V16.034H153.92v18.171H50.238zm86.58 54.163L67.34 141.075V50.238h69.478v38.13z"/>
  <path fill="#F49921" d="M429.598 441.014l-59.858-59.858c-7.137-7.138-18.245-9.044-27.359-4.685l-39.621-39.62c17.547-21.876 28.061-49.623 28.061-79.783 0-28.833-9.376-56.047-27.116-78.697a8.016 8.016 0 0 0-11.254-1.368 8.016 8.016 0 0 0-1.368 11.254c15.508 19.801 23.706 43.596 23.706 68.811 0 61.592-50.107 111.699-111.699 111.699S91.39 318.66 91.39 257.069 141.499 145.37 203.089 145.37c20.248 0 40.077 5.472 57.344 15.822a8.017 8.017 0 0 0 8.243-13.752c-19.756-11.843-42.436-18.104-65.587-18.104-70.432 0-127.733 57.3-127.733 127.733s57.301 127.732 127.733 127.732c34.509 0 65.86-13.762 88.869-36.078l39.094 39.094c-4.252 8.936-2.711 19.964 4.676 27.351l59.858 59.858c9.27 9.272 24.742 9.272 34.012 0 9.377-9.377 9.377-24.636 0-34.012zm-10.912 22.216c-2.997 3.503-8.502 3.719-11.762.459l-59.858-59.858c-2.916-2.916-3.107-7.743-.424-10.878 2.997-3.503 8.501-3.719 11.762-.459l59.858 59.858c2.915 2.916 3.107 7.743.424 10.878z"/>
  <path fill="#F49921" d="M203.089 163.541c-51.572 0-93.528 41.956-93.528 93.528s41.957 93.528 93.528 93.528 93.528-41.956 93.528-93.528-41.956-93.528-93.528-93.528zm0 171.022c-42.731 0-77.495-34.764-77.495-77.495s34.765-77.495 77.495-77.495 77.495 34.764 77.495 77.495-34.764 77.495-77.495 77.495z"/>
  <path fill="#F49921" d="M270.188 253.628c-10.504-22.108-39.35-38.78-67.099-38.78s-56.594 16.673-67.099 38.781a8.022 8.022 0 0 0 0 6.882c10.505 22.108 39.35 38.779 67.099 38.779s56.595-16.673 67.099-38.78a8.029 8.029 0 0 0 0-6.882zm-94.314 23.231c-9.973-4.724-18.523-11.717-23.521-19.791 4.999-8.073 13.549-15.065 23.521-19.791-4.054 5.559-6.454 12.398-6.454 19.791s2.401 14.232 6.454 19.791zm27.215-2.154c-9.725 0-17.637-7.912-17.637-17.637s7.912-17.637 17.637-17.637 17.637 7.912 17.637 17.637-7.912 17.637-17.637 17.637zm27.216 2.154c4.054-5.559 6.454-12.398 6.454-19.791s-2.401-14.231-6.454-19.791c9.973 4.726 18.522 11.717 23.521 19.791-4.999 8.074-13.549 15.066-23.521 19.791z"/>
</svg>
