<svg xmlns="http://www.w3.org/2000/svg" viewBox="0 0 512 512">
  <path fill="#F49921" d="M302.496 0H42.648a7.543 7.543 0 0 0-7.544 7.544v496.912A7.543 7.543 0 0 0 42.648 512h135.116c4.167 0 7.544-3.377 7.544-7.544s-3.377-7.544-7.544-7.544H50.192V15.088h252.303c4.167 0 7.544-3.377 7.544-7.544S306.663 0 302.496 0zM363.605 0h-33.091c-4.167 0-7.544 3.377-7.544 7.544s3.377 7.544 7.544 7.544h25.547v481.823h-150.28c-4.167 0-7.544 3.377-7.544 7.544s3.377 7.544 7.544 7.544h157.822a7.543 7.543 0 0 0 7.544-7.544V7.544A7.54 7.54 0 0 0 363.605 0z"/>
  <path fill="#F49921" d="M311.259 49.821H94.993a7.544 7.544 0 0 0-7.545 7.544v34.2a7.543 7.543 0 0 0 7.544 7.544h216.267a7.543 7.543 0 0 0 7.544-7.544v-34.2a7.543 7.543 0 0 0-7.544-7.544zm-7.542 34.201H102.538V64.91h201.179v19.112zM242.822 107.631H94.993c-4.167 0-7.544 3.377-7.544 7.544s3.377 7.544 7.544 7.544h147.828c4.167 0 7.544-3.377 7.544-7.544s-3.377-7.544-7.543-7.544zM311.26 107.631h-39.268c-4.167 0-7.544 3.377-7.544 7.544s3.377 7.544 7.544 7.544h39.268c4.167 0 7.544-3.377 7.544-7.544s-3.377-7.544-7.544-7.544zM311.26 131.772H163.431c-4.167 0-7.544 3.377-7.544 7.544s3.377 7.544 7.544 7.544H311.26c4.167 0 7.544-3.377 7.544-7.544s-3.377-7.544-7.544-7.544zM134.26 131.773H94.993a7.543 7.543 0 0 0-7.544 7.544 7.543 7.543 0 0 0 7.544 7.544h39.267a7.543 7.543 0 0 0 7.544-7.544 7.543 7.543 0 0 0-7.544-7.544zM340.431 166.979H65.822a7.543 7.543 0 0 0-7.544 7.544 7.543 7.543 0 0 0 7.544 7.544h274.609a7.543 7.543 0 0 0 7.544-7.544 7.543 7.543 0 0 0-7.544-7.544zM123.661 204.296H94.993a7.543 7.543 0 0 0-7.544 7.544 7.543 7.543 0 0 0 7.544 7.544h28.668a7.543 7.543 0 0 0 7.544-7.544 7.543 7.543 0 0 0-7.544-7.544zM163.431 225.421H94.993a7.543 7.543 0 0 0-7.544 7.544 7.543 7.543 0 0 0 7.544 7.544h68.438a7.543 7.543 0 0 0 7.544-7.544 7.543 7.543 0 0 0-7.544-7.544zM248.423 373.186h-90.591c-4.167 0-7.544 3.377-7.544 7.544s3.377 7.544 7.544 7.544h90.591c4.167 0 7.544-3.377 7.544-7.544s-3.377-7.544-7.544-7.544zM311.26 394.311H94.993c-4.167 0-7.544 3.377-7.544 7.544s3.377 7.544 7.544 7.544H311.26c4.167 0 7.544-3.377 7.544-7.544s-3.377-7.544-7.544-7.544zM114.627 261.533H94.993c-4.167 0-7.544 3.377-7.544 7.544s3.377 7.544 7.544 7.544h19.634c4.167 0 7.544-3.377 7.544-7.544s-3.377-7.544-7.544-7.544zM114.627 284.668H94.993c-4.167 0-7.544 3.377-7.544 7.544s3.377 7.544 7.544 7.544h19.634c4.167 0 7.544-3.377 7.544-7.544s-3.377-7.544-7.544-7.544zM114.627 307.804H94.993c-4.167 0-7.544 3.377-7.544 7.544s3.377 7.544 7.544 7.544h19.634c4.167 0 7.544-3.377 7.544-7.544s-3.377-7.544-7.544-7.544zM114.627 330.939H94.993c-4.167 0-7.544 3.377-7.544 7.544s3.377 7.544 7.544 7.544h19.634c4.167 0 7.544-3.377 7.544-7.544s-3.377-7.544-7.544-7.544zM311.26 261.533H144.077c-4.167 0-7.544 3.377-7.544 7.544s3.377 7.544 7.544 7.544H311.26c4.167 0 7.544-3.377 7.544-7.544s-3.377-7.544-7.544-7.544zM189.044 284.668h-44.967c-4.167 0-7.544 3.377-7.544 7.544s3.377 7.544 7.544 7.544h44.967c4.167 0 7.544-3.377 7.544-7.544s-3.376-7.544-7.544-7.544zM261.468 307.804H144.077c-4.167 0-7.544 3.377-7.544 7.544s3.377 7.544 7.544 7.544h117.391c4.167 0 7.544-3.377 7.544-7.544s-3.377-7.544-7.544-7.544zM295.669 330.939H144.077c-4.167 0-7.544 3.377-7.544 7.544s3.377 7.544 7.544 7.544h151.591a7.544 7.544 0 1 0 .001-15.088zM145.287 442.352a7.543 7.543 0 0 0-7.544 7.544c0 2.773-2.256 5.029-5.029 5.029s-5.029-2.256-5.029-5.029c0-11.093-9.025-20.118-20.118-20.118s-20.118 9.025-20.118 20.118c0 4.167 3.377 7.544 7.544 7.544s7.544-3.377 7.544-7.544c0-2.773 2.256-5.029 5.029-5.029s5.029 2.256 5.029 5.029c0 11.093 9.025 20.118 20.118 20.118s20.118-9.025 20.118-20.118a7.543 7.543 0 0 0-7.544-7.544zM311.762 442.352a7.543 7.543 0 0 0-7.544 7.544c0 2.773-2.256 5.029-5.029 5.029s-5.029-2.256-5.029-5.029c0-11.093-9.025-20.118-20.118-20.118s-20.118 9.025-20.118 20.118c0 4.167 3.377 7.544 7.544 7.544s7.544-3.377 7.544-7.544a5.035 5.035 0 0 1 5.029-5.029 5.035 5.035 0 0 1 5.029 5.029c0 11.093 9.025 20.118 20.118 20.118 11.093 0 20.118-9.025 20.118-20.118a7.543 7.543 0 0 0-7.544-7.544zM469.35 104.721a7.543 7.543 0 0 0-7.544 7.544v17.421h-5.572v-13.36c0-3.466-2.34-6.379-5.525-7.263v-8.344c0-4.952-2.877-9.233-7.041-11.293V76.78c0-5.029-1.961-9.75-5.496-13.268a18.623 18.623 0 0 0-13.294-5.522c-10.362 0-18.791 8.429-18.791 18.79v12.647c-4.164 2.06-7.041 6.341-7.041 11.293v8.343c-3.187.883-5.528 3.796-5.528 7.264v104.399c0 3.468 2.342 6.381 5.528 7.264v13.765c0 .033-.005.064-.005.097s.004.065.005.097v23.656c0 .033-.005.064-.005.097s.004.065.005.097v104.094a7.634 7.634 0 0 0 .543 3.035l19.078 47.266a7.543 7.543 0 0 0 6.995 4.721l.11-.001a7.544 7.544 0 0 0 6.966-4.923l17.502-47.266c.305-.828.47-1.733.47-2.616v-50.306c0-4.167-3.377-7.544-7.544-7.544s-7.544 3.377-7.544 7.544v42.761h-21.486v-89.318h21.486v18.533c0 4.167 3.377 7.544 7.544 7.544s7.544-3.377 7.544-7.544v-63.791c3.185-.884 5.525-3.796 5.525-7.263v-75.951h5.572V268.24c0 4.167 3.377 7.544 7.544 7.544s7.544-3.377 7.544-7.544V112.265a7.544 7.544 0 0 0-7.545-7.544zm-37.023 272.933l-6.966 18.81-7.592-18.81h14.558zM421.178 76.78a3.704 3.704 0 0 1 3.702-3.701c.985 0 1.908.382 2.625 1.102a3.642 3.642 0 0 1 1.077 2.599v11.336h-7.404V76.78zm-7.043 26.424h21.486v5.579h-21.486v-5.579zm21.486 154.954h-21.486v-8.762h21.486v8.762zm0-23.851h-21.486v-6.037h21.486v6.037zm5.526-97.427c-.005.117-.018.232-.018.35 0 .119.012.234.018.351v75.6h-32.539v-89.31h32.539v13.009z"/>
</svg>
