<?xml version="1.0" encoding="utf-8"?>
<!-- Generator: Adobe Illustrator 22.1.0, SVG Export Plug-In . SVG Version: 6.00 Build 0)  -->
<svg version="1.1" id="Ebene_1" xmlns="http://www.w3.org/2000/svg" xmlns:xlink="http://www.w3.org/1999/xlink" x="0px" y="0px"
	 viewBox="0 0 708.7 80.8" style="enable-background:new 0 0 708.7 80.8;" xml:space="preserve">
<style type="text/css">
	.st0{fill:#FFFFFF;}
	.st1{fill:#2F3F92;}
	.st2{fill:#F49922;}
</style>
<path class="st0" d="M2.3,2.3h704v76.3H2.3V2.3z"/>
<path class="st1" d="M52.4,66.1h-39v-8.9h39c2.9,0,5.3-0.7,7.1-2.2c1.6-1.4,2.4-3,2.4-4.9s-0.8-3.5-2.4-4.8
	c-1.8-1.4-4.1-2.1-7.1-2.1H28.1c-5,0-9-1.5-12-4.4c-2.7-2.7-4-5.9-4-9.8c0-3.8,1.3-7,4-9.7c2.9-2.9,6.9-4.4,12-4.4h38.7v8.9H28.1
	c-1.9,0-3.4,0.5-4.5,1.6c-1.1,1-1.6,2.3-1.6,3.7c0,1.4,0.5,2.6,1.5,3.6c1.1,1.1,2.7,1.6,4.6,1.6h24.2c5.5,0,9.8,1.7,13.1,5
	c2.9,3,4.4,6.7,4.4,11s-1.4,8-4.3,10.9C62.3,64.5,57.9,66.1,52.4,66.1z M147.4,66.1V14.9h8.9v42.3h35.3v8.9H147.4z M243.9,51.7
	h-24.3l5.4-8.9h13.5l-8.9-14.7l-23,37.9h-11.5l27.8-46.3c0.9-1.5,2.1-2.7,3.5-3.6c1.2-0.9,2.3-1.3,3.3-1.4c1-0.1,2.2,0.3,3.5,1.1
	c1.5,0.9,2.7,2.3,3.7,3.9L264.1,66h-11.5L243.9,51.7L243.9,51.7z M328.3,66.1h-13.2l-14.3-14.4h-19.2v-8.9h23.9c4.2,0,7.4-1,9.5-3.1
	c1.9-1.9,2.8-4.1,2.6-6.8c-0.3-6.1-4.4-9.1-12.2-9.1h-29.2v42.3h-8.9V14.9h36.8c7.7,0,13.6,1.9,17.6,5.6c3.4,3.1,5.1,7.3,5.3,12.4
	c0.1,4-0.9,7.6-3.2,10.7c-2.5,3.4-6.2,5.8-11,7.1L328.3,66.1L328.3,66.1z"/>
<path class="st2" d="M119.7,53.2L104.5,38l-3.6-6.5l6.5,3.6l15.2,15.2L119.7,53.2z"/>
<path class="st1" d="M129,14h-17.3v8.1h15.2v35.3H91.6V42.1h-8.1v17.4c0,3.3,2.7,6,6,6H129c3.3,0,6-2.7,6-6V20
	C134.9,16.7,132.3,14,129,14z M130.2,62.3c-1,0-1.9-0.8-1.9-1.9c0-1,0.9-1.9,1.9-1.9s1.9,0.8,1.9,1.9
	C132.1,61.4,131.3,62.3,130.2,62.3z"/>
<path class="st1" d="M91.6,33l-1.9-0.8l0.4-1.1l1.5,0.6v-9.6h9.7l-0.6-1.5l1.1-0.4l0.8,1.9h6.5V14H89.5c-3.3,0-6,2.7-6,6v19.5h8.1
	V33z"/>
<path class="st1" d="M91.6,39.7h7.7v2.2h-7.7V39.7z M109.2,22.1h2.2V29h-2.2V22.1z"/>
<path class="st1" d="M91.9,33l0.3-0.7l3,1.2l-0.3,0.7L91.9,33z"/>
<path class="st1" d="M94.7,25.8l0.6-0.6l2.3,2.3L96.9,28L94.7,25.8z"/>
<path class="st1" d="M101.7,22.8l0.7-0.3l1.2,3l-0.7,0.3L101.7,22.8z"/>
<path class="st1" d="M0,0v80.8h708.7V0H0z M335.8,76.3H4.5V4.5h331.3V76.3z M406.6,23.8h-20.2v42.3h-8.9V23.8h-20.2v-8.9h49.3
	L406.6,23.8L406.6,23.8z M456.8,23.8h-35.3v33.4h35.3v8.9h-44.2V14.9h44.2C456.8,14.9,456.8,23.8,456.8,23.8z M454.5,35.7v8.9h-29.3
	v-8.9H454.5z M517.2,61.2c-3.2,3.3-7.6,4.9-13.2,4.9h-39v-8.9h39c2.9,0,5.3-0.7,7.1-2.2c1.6-1.4,2.4-3,2.4-4.9s-0.8-3.5-2.4-4.8
	c-1.8-1.4-4.1-2.1-7.1-2.1h-24.2c-5,0-9-1.5-12-4.4c-2.7-2.7-4-5.9-4-9.8c0-3.8,1.3-7,4-9.7c2.9-2.9,6.9-4.4,12-4.4h38.7v8.9h-38.7
	c-1.9,0-3.4,0.5-4.5,1.6c-1.1,1-1.6,2.3-1.6,3.7c0,1.4,0.5,2.6,1.5,3.6c1.1,1.1,2.7,1.6,4.6,1.6H504c5.5,0,9.8,1.7,13.1,5
	c2.9,3,4.4,6.7,4.4,11C521.6,54.6,520.1,58.2,517.2,61.2z M575.5,23.8h-20.2v42.3h-8.9V23.8h-20.2v-8.9h49.3L575.5,23.8L575.5,23.8z
	 M625.8,23.8h-35.3v33.4h35.3v8.9h-44.2V14.9h44.2C625.8,14.9,625.8,23.8,625.8,23.8z M623.5,35.7v8.9h-29.3v-8.9H623.5z
	 M682.5,66.1l-14.3-14.4H649v-8.9h23.9c4.2,0,7.4-1,9.5-3.1c1.9-1.9,2.8-4.1,2.6-6.8c-0.3-6.1-4.4-9.1-12.2-9.1h-29.2v42.3h-8.9
	V14.9h36.8c7.7,0,13.6,1.9,17.6,5.6c3.4,3.1,5.1,7.3,5.3,12.4c0.1,4-0.9,7.6-3.2,10.7c-2.5,3.4-6.2,5.8-11,7.1l15.5,15.4L682.5,66.1
	L682.5,66.1z"/>
</svg>
