<svg xmlns="http://www.w3.org/2000/svg" viewBox="0 0 512 512">
  <path fill="#F49921" d="M452.677 273.637a8.017 8.017 0 0 0-8.017 8.017v214.313H213.245c-4.428 0-8.017 3.589-8.017 8.017s3.588 8.017 8.017 8.017h239.432a8.017 8.017 0 0 0 8.017-8.017V281.653a8.017 8.017 0 0 0-8.017-8.016zM508.829 189.756L260.846 1.631a8.018 8.018 0 0 0-9.691 0l-98.303 74.574V50.24h9.086a8.017 8.017 0 0 0 8.017-8.017V8.018a8.017 8.017 0 0 0-8.017-8.017H42.223a8.017 8.017 0 0 0-8.017 8.017v34.205a8.017 8.017 0 0 0 8.017 8.017h9.086v103L3.172 189.756a8.016 8.016 0 1 0 4.846 14.403h43.29v299.824A8.017 8.017 0 0 0 59.325 512h102.614c4.428 0 8.017-3.589 8.017-8.017s-3.588-8.017-8.017-8.017H67.341V196.142a8.017 8.017 0 0 0-8.017-8.017H31.849L256.001 18.081l224.151 170.046h-27.475a8.017 8.017 0 0 0-8.017 8.017V238.9a8.017 8.017 0 0 0 8.017 8.017 8.017 8.017 0 0 0 8.017-8.017v-34.74h43.29a8.015 8.015 0 0 0 4.845-14.404zM50.239 34.206V16.035h103.682v18.171H50.239zm86.581 54.163l-69.478 52.707V50.24h69.478v38.129z"/>
  <path fill="#F49921" d="M426.929 406.677l-72.697-85.508a8.016 8.016 0 0 0-5.46-2.798l-24.108-1.952c-.057-.004-.113-.002-.171-.005l-15.826-18.615 35.9-35.901 6.424 6.424c3.088 3.087 8.251 3.087 11.338 0l24.186-24.186a8.045 8.045 0 0 0 1.206-1.544l18.14-30.234a8.016 8.016 0 0 0-1.206-9.793l-12.092-12.092a8.015 8.015 0 0 0-9.793-1.206l-30.233 18.14a7.982 7.982 0 0 0-1.545 1.206L326.805 232.8c-3.086 3.086-3.086 8.251 0 11.337l6.424 6.424-34.982 34.983-37.901-44.579 14.573-12.389 67.666-23.985c5.202-1.844 7.009-8.55 3.422-12.758l-25.239-29.595c-12.484-14.683-29.936-23.626-49.147-25.182-19.215-1.556-37.874 4.464-52.556 16.946l-75.329 64.044-1.195-1.406a23.888 23.888 0 0 0-16.381-8.394 23.92 23.92 0 0 0-17.52 5.649l-14.658 12.462c-9.986 8.49-11.24 23.909-2.745 33.901l62.312 73.292c8.486 9.986 23.91 11.239 33.901 2.745l14.658-12.462c5.169-4.394 8.258-10.845 8.462-17.625.199-6.607-2.39-12.363-6.599-17.314l18.101-15.389 40.534 47.679-15.3 15.3-6.423-6.423a8.015 8.015 0 0 0-5.669-2.348h-24.186a8.018 8.018 0 0 0-5.669 2.348L126 409.42c-9.271 9.271-9.272 24.741-.001 34.012l25.697 25.698c9.271 9.243 24.746 9.266 34.013 0l79.361-79.362a8.015 8.015 0 0 0 2.347-5.668v-24.186a8.015 8.015 0 0 0-2.347-5.668l-6.424-6.424 14.382-14.382 16.388 19.276-1.401 17.309a8.02 8.02 0 0 0 1.883 5.839l72.697 85.508c8.477 9.971 23.924 11.228 33.9 2.745l27.689-23.539c9.986-8.489 11.241-23.908 2.745-33.901zm-65.296-186.028l24.02-14.412 3.24 3.241-14.411 24.02-17.82 17.82-12.849-12.849 17.82-17.82zm-187.26 237.144c-3.129 3.126-8.213 3.124-11.339 0h.001l-25.698-25.698c-3.089-3.09-3.088-8.248.001-11.337l67.645-67.646 37.035 37.035-67.645 67.646zm77.014-80.952l-33.095-33.095h13.605l9.742 9.741.002.003.003.002 9.743 9.743v13.606zm18.945-223.804c14.941 1.21 28.516 8.165 38.232 19.595l17.687 20.74-52.868 18.739-40.998-48.223c10.921-8.122 24.258-11.961 37.947-10.851zm-75.808 153.118a7.965 7.965 0 0 1-2.797 5.46h-.001l-14.659 12.462c-3.33 2.831-8.472 2.411-11.299-.915l-62.312-73.292c-2.832-3.331-2.413-8.471.915-11.3l14.659-12.462c3.331-2.833 8.47-2.412 11.299.915l62.312 73.292a7.969 7.969 0 0 1 1.883 5.84zm-.935-29.477l-39.465-46.419 65.962-56.08 39.465 46.419-65.962 56.08zm40.702-13.559l13.843-11.77 62.699 73.747-13.844 11.771-62.698-73.748zm179.51 165.242h-.001l-27.689 23.54c-3.33 2.831-8.47 2.414-11.299-.915l-70.546-82.978 1.415-17.488 20.999-17.854 17.487 1.416 70.547 82.979c2.833 3.33 2.414 8.471-.913 11.3z"/>
</svg>
