<svg xmlns="http://www.w3.org/2000/svg" viewBox="0 0 512 512">
  <path fill="#F49921" d="M459.473 398.099h-53.08a8.294 8.294 0 0 0 0 16.588h28.889a241.956 241.956 0 0 1-15.408 15.881 43.542 43.542 0 0 0-9.776-4.298l-60.388-18.116-16.037-24.054a8.294 8.294 0 0 0-5.5-3.574 8.264 8.264 0 0 0-1.953-.092v-26.185l4.516-3.763a43.675 43.675 0 0 0 15.169-26.655l1.033-6.456h6.375c14.329 0 25.987-11.658 25.987-25.987v-17.693c0-12.723-9.193-23.333-21.285-25.552l8.067-50.423a78.949 78.949 0 0 0-17.91-63.793 78.953 78.953 0 0 0-60.163-27.766H223.99c-23.189 0-45.118 10.119-60.164 27.764s-21.574 40.896-17.91 63.793l8.067 50.423c-12.091 2.22-21.284 12.831-21.284 25.554v17.693c0 14.329 11.658 25.987 25.987 25.987h6.375l1.033 6.456a43.672 43.672 0 0 0 15.169 26.655l4.516 3.764v26.185a8.211 8.211 0 0 0-1.953.092 8.297 8.297 0 0 0-5.5 3.574l-16.037 24.054-60.388 18.116a43.601 43.601 0 0 0-9.751 4.276 249.134 249.134 0 0 1-5.441-5.256C41.491 380.071 16.587 319.949 16.587 256c0-38.695 9.443-77.13 27.307-111.148a8.294 8.294 0 1 0-14.686-7.712C10.101 173.527 0 214.629 0 256c0 68.38 26.628 132.668 74.981 181.019S187.62 512 256 512c75.775 0 146.373-32.824 195.179-90.364v37.837a8.294 8.294 0 0 0 16.588 0v-53.08a8.295 8.295 0 0 0-8.294-8.294zM334.39 415.077l-35.816 50.142-29.034-23.227 55.194-41.397 9.656 14.482zm28.323-141.384v17.693c0 5.183-4.216 9.4-9.4 9.4h-3.721l5.8-36.253c4.186.951 7.321 4.693 7.321 9.16zm-204.026 27.093c-5.183 0-9.4-4.217-9.4-9.4v-17.693c0-4.468 3.135-8.21 7.32-9.16l5.801 36.253h-3.721zm12.027-53.08l-8.418-52.608a62.393 62.393 0 0 1 14.152-50.411 62.395 62.395 0 0 1 47.542-21.94h64.019a62.388 62.388 0 0 1 47.542 21.94 62.384 62.384 0 0 1 14.152 50.411l-7.611 47.568-7.109-49.766a8.294 8.294 0 0 0-10.833-6.695c-.783.26-78.934 26.113-130.077 26.113a8.293 8.293 0 0 0-7.418 4.585l-15.401 30.802h-.54zm11.759 73.503l-9.107-56.915h3.013a8.293 8.293 0 0 0 7.418-4.585l15.439-30.877c42.921-1.229 98.679-17.104 120.711-23.887l7.461 52.227a8.293 8.293 0 0 0 8.211 7.12h3.013l-6.374 39.841c-1.936 2.177-22.082 23.193-76.259 23.193a8.294 8.294 0 0 0 0 16.588c34.771 0 57.522-7.973 71.388-15.672a27.1 27.1 0 0 1-7.27 9.5l-35.506 29.589a18.28 18.28 0 0 1-11.681 4.229h-33.863a18.28 18.28 0 0 1-11.681-4.229l-35.506-29.589a27.097 27.097 0 0 1-9.407-16.533zm4.792 79.386l55.194 41.397-29.034 23.227-35.816-50.142 9.656-14.482zm60.441 94.659c-52.257-1.768-101.599-20.211-141.896-52.794.289-.096.566-.216.858-.303l57.565-17.269 40.784 57.099a8.297 8.297 0 0 0 11.93 1.655l30.759-24.607v36.219zm-45.339-104.066v-23.116l14.401 12.002a34.9 34.9 0 0 0 22.3 8.074h33.863a34.898 34.898 0 0 0 22.3-8.074l14.401-12.002v23.116L256 431.413l-53.633-40.225zm61.927 104.069v-36.22l30.759 24.607a8.296 8.296 0 0 0 11.93-1.655l40.784-57.099 57.565 17.269c.316.094.626.2.937.306-40.022 32.379-89.49 51.011-141.975 52.792z"/>
  <path fill="#F49921" d="M437.019 74.981C388.668 26.628 324.38 0 256 0c-40.549 0-79.333 9.206-115.277 27.364-30.38 15.347-57.772 36.991-79.902 63.007V52.527a8.294 8.294 0 0 0-16.588 0v53.08a8.294 8.294 0 0 0 8.294 8.294h53.08a8.294 8.294 0 0 0 0-16.588H76.771c20.1-22.646 44.508-41.544 71.431-55.143C181.805 25.194 218.074 16.587 256 16.587c63.949 0 124.071 24.903 169.291 70.122C470.51 131.929 495.413 192.05 495.413 256c0 38.695-9.443 77.13-27.307 111.148a8.294 8.294 0 0 0 14.684 7.711C501.899 338.473 512 297.371 512 256c0-68.38-26.628-132.668-74.981-181.019z"/>
</svg>
